<svg id="Layer_1" data-name="Layer 1" xmlns="http://www.w3.org/2000/svg" width="70.21" height="55.33" viewBox="0 0 70.21 55.33"><defs><style>.cls-1{fill:#65d9ea;}.cls-2{fill:#c5f2fd;}.cls-3{fill:#75edf7;}.cls-4{fill:#60eaf7;}.cls-5{fill:#98e7ae;}.cls-6{fill:#64dcd4;}.cls-7{fill:#28bbc3;}.cls-8{fill:#23c8cc;}.cls-9{fill:#3cc791;}.cls-10{fill:#18aa85;}.cls-11{fill:#abedbe;}.cls-12{fill:#5dd4a9;}</style></defs><polyline class="cls-1" points="16.25 13.16 16.25 38.93 38.57 51.82 60.89 38.93 60.89 13.16 38.57 0.28 16.25 13.16"/><polyline class="cls-2" points="60.89 2.39 51.56 7.78 51.56 7.78 60.89 13.16 60.89 23.93 70.21 18.54 70.21 7.78 60.89 2.39"/><polyline class="cls-3" points="51.56 7.78 51.56 18.54 60.89 23.93 60.89 13.16 51.56 7.78"/><polyline class="cls-4" points="38.57 11.05 25.58 18.55 25.58 18.56 38.57 26.06 38.57 41.06 38.57 41.06 51.56 33.56 51.56 18.55 38.57 11.05"/><path class="cls-5" d="M0,34.3m12.14,21L19.68,51l-7.54-4.34v8.69M0,34.3,7.54,30,0,34.3l7.54,4.35V30"/><path class="cls-6" d="M24.29,43.57v4.75L19.68,51l3.37,2,8.73-5-7.49-4.33M16.25,21l-8.71,5V30l4.6-2.66,4.11,2.37V21"/><polyline class="cls-7" points="23.05 17.1 16.25 21.03 16.25 29.66 24.29 34.3 24.29 43.57 31.78 47.9 38.57 43.98 38.57 41.06 25.58 33.56 25.58 18.56 23.05 17.1"/><polygon class="cls-8" points="25.58 18.56 38.57 26.06 38.57 41.06 25.58 33.56 25.58 18.56"/><polyline class="cls-9" points="12.14 27.29 7.54 29.95 7.54 38.65 12.14 41.3 12.14 46.63 19.68 50.98 24.29 48.32 24.29 43.57 16.25 38.93 16.25 29.66 12.14 27.29"/><polyline class="cls-10" points="16.25 29.66 16.25 38.93 24.29 43.57 24.29 34.3 16.25 29.66"/><polyline class="cls-11" points="0 34.3 0 34.3 0 48.32 12.14 55.33 12.14 46.63 7.54 43.98 7.54 38.65 0 34.3"/><polyline class="cls-12" points="7.54 38.65 7.54 43.98 12.14 46.63 12.14 41.3 7.54 38.65"/></svg>